<?xml version="1.0" encoding="UTF-8" standalone="no"?>
<!DOCTYPE svg PUBLIC "-//W3C//DTD SVG 1.1//EN"
 "http://www.w3.org/Graphics/SVG/1.1/DTD/svg11.dtd">
<!-- Generated by graphviz version 2.40.1 (20161225.0304)
 -->
<!-- Title: %0 Pages: 1 -->
<svg width="356pt" height="44pt"
 viewBox="0.00 0.00 356.48 44.00" xmlns="http://www.w3.org/2000/svg" xmlns:xlink="http://www.w3.org/1999/xlink">
<g id="graph0" class="graph" transform="scale(1 1) rotate(0) translate(4 40)">
<title>%0</title>
<polygon fill="#ffffff" stroke="transparent" points="-4,4 -4,-40 352.4758,-40 352.4758,4 -4,4"/>
<!-- Perception -->
<g id="node1" class="node">
<title>Perception</title>
<ellipse fill="none" stroke="#0000ff" cx="52.3325" cy="-18" rx="52.1655" ry="18"/>
<text text-anchor="middle" x="52.3325" y="-13.8" font-family="Times,serif" font-size="14.00" fill="#0000ff">Perception</text>
</g>
<!-- Decision -->
<g id="node2" class="node">
<title>Decision</title>
<ellipse fill="none" stroke="#a020f0" cx="186.0262" cy="-18" rx="45.2227" ry="18"/>
<text text-anchor="middle" x="186.0262" y="-13.8" font-family="Times,serif" font-size="14.00" fill="#a020f0">Decision</text>
</g>
<!-- Perception&#45;&gt;Decision -->
<g id="edge1" class="edge">
<title>Perception&#45;&gt;Decision</title>
<path fill="none" stroke="#000000" d="M104.7881,-18C113.2134,-18 121.9589,-18 130.4543,-18"/>
<polygon fill="#000000" stroke="#000000" points="130.6543,-21.5001 140.6543,-18 130.6543,-14.5001 130.6543,-21.5001"/>
</g>
<!-- Control -->
<g id="node3" class="node">
<title>Control</title>
<ellipse fill="none" stroke="#ffa500" cx="307.9316" cy="-18" rx="40.5886" ry="18"/>
<text text-anchor="middle" x="307.9316" y="-13.8" font-family="Times,serif" font-size="14.00" fill="#ffa500">Control</text>
</g>
<!-- Decision&#45;&gt;Control -->
<g id="edge2" class="edge">
<title>Decision&#45;&gt;Control</title>
<path fill="none" stroke="#000000" d="M231.4192,-18C239.7932,-18 248.5871,-18 257.1092,-18"/>
<polygon fill="#000000" stroke="#000000" points="257.323,-21.5001 267.323,-18 257.3229,-14.5001 257.323,-21.5001"/>
</g>
</g>
</svg>
