<?xml version="1.0" encoding="UTF-8" standalone="no"?>
<!DOCTYPE svg PUBLIC "-//W3C//DTD SVG 1.1//EN"
 "http://www.w3.org/Graphics/SVG/1.1/DTD/svg11.dtd">
<!-- Generated by graphviz version 2.40.1 (20161225.0304)
 -->
<!-- Title: G Pages: 1 -->
<svg width="387pt" height="207pt"
 viewBox="0.00 0.00 387.05 206.80" xmlns="http://www.w3.org/2000/svg" xmlns:xlink="http://www.w3.org/1999/xlink">
<g id="graph0" class="graph" transform="scale(1 1) rotate(0) translate(4 202.8)">
<title>G</title>
<polygon fill="#ffffff" stroke="transparent" points="-4,4 -4,-202.8 383.0492,-202.8 383.0492,4 -4,4"/>
<!-- a -->
<g id="node1" class="node">
<title>a</title>
<polygon fill="none" stroke="#000000" points="181.4136,-198.6019 .1952,-198.6019 .1952,-157.3981 181.4136,-157.3981 181.4136,-198.6019"/>
<text text-anchor="middle" x="90.8044" y="-182.2" font-family="Times,serif" font-size="14.00" fill="#000000">update sensors measurements</text>
<text text-anchor="middle" x="90.8044" y="-165.4" font-family="Times,serif" font-size="14.00" fill="#000000">cost a ms</text>
</g>
<!-- b -->
<g id="node2" class="node">
<title>b</title>
<polygon fill="none" stroke="#000000" points="134.1895,-120.0019 65.4193,-120.0019 65.4193,-78.7981 134.1895,-78.7981 134.1895,-120.0019"/>
<text text-anchor="middle" x="99.8044" y="-103.6" font-family="Times,serif" font-size="14.00" fill="#000000">our code</text>
<text text-anchor="middle" x="99.8044" y="-86.8" font-family="Times,serif" font-size="14.00" fill="#000000">cost x ms</text>
</g>
<!-- a&#45;&gt;b -->
<g id="edge1" class="edge">
<title>a&#45;&gt;b</title>
<path fill="none" stroke="#000000" d="M93.169,-157.3488C94.1124,-149.1105 95.2187,-139.4489 96.2546,-130.402"/>
<polygon fill="#000000" stroke="#000000" points="99.7639,-130.5195 97.4243,-120.1862 92.8093,-129.7231 99.7639,-130.5195"/>
</g>
<!-- c -->
<g id="node3" class="node">
<title>c</title>
<polygon fill="none" stroke="#000000" points="180.7708,-41.4019 24.838,-41.4019 24.838,-.1981 180.7708,-.1981 180.7708,-41.4019"/>
<text text-anchor="middle" x="102.8044" y="-25" font-family="Times,serif" font-size="14.00" fill="#000000">update motors actuations</text>
<text text-anchor="middle" x="102.8044" y="-8.2" font-family="Times,serif" font-size="14.00" fill="#000000">cost b ms</text>
</g>
<!-- b&#45;&gt;c -->
<g id="edge2" class="edge">
<title>b&#45;&gt;c</title>
<path fill="none" stroke="#000000" d="M100.5926,-78.7488C100.9071,-70.5105 101.2758,-60.8489 101.6211,-51.802"/>
<polygon fill="#000000" stroke="#000000" points="105.127,-51.7124 102.011,-41.5862 98.1321,-51.4454 105.127,-51.7124"/>
</g>
<!-- c&#45;&gt;a -->
<g id="edge3" class="edge">
<title>c:e&#45;&gt;a:e</title>
<path fill="none" stroke="#000000" d="M180.8044,-20.8C212.3269,-20.8 216.2195,-148.7961 191.0128,-173.7953"/>
<polygon fill="#000000" stroke="#000000" points="189.4472,-170.6625 181.8044,-178 192.3548,-177.0301 189.4472,-170.6625"/>
<text text-anchor="middle" x="292.9268" y="-103.6" font-family="Times,serif" font-size="14.00" fill="#000000"> a control loop time step (t ms)</text>
<text text-anchor="middle" x="292.9268" y="-86.8" font-family="Times,serif" font-size="14.00" fill="#000000">goes in the simulation</text>
</g>
</g>
</svg>
