<?xml version="1.0" encoding="UTF-8" standalone="no"?>
<!DOCTYPE svg PUBLIC "-//W3C//DTD SVG 1.1//EN"
 "http://www.w3.org/Graphics/SVG/1.1/DTD/svg11.dtd">
<!-- Generated by graphviz version 2.40.1 (20161225.0304)
 -->
<!-- Title: G Pages: 1 -->
<svg width="1091pt" height="238pt"
 viewBox="0.00 0.00 1091.37 238.40" xmlns="http://www.w3.org/2000/svg" xmlns:xlink="http://www.w3.org/1999/xlink">
<g id="graph0" class="graph" transform="scale(1 1) rotate(0) translate(4 234.4)">
<title>G</title>
<polygon fill="#ffffff" stroke="transparent" points="-4,4 -4,-234.4 1087.3746,-234.4 1087.3746,4 -4,4"/>
<!-- a -->
<g id="node1" class="node">
<title>a</title>
<polygon fill="none" stroke="#000000" points="844.6296,-230.2019 663.4112,-230.2019 663.4112,-188.9981 844.6296,-188.9981 844.6296,-230.2019"/>
<text text-anchor="middle" x="754.0204" y="-213.8" font-family="Times,serif" font-size="14.00" fill="#000000">update sensors measurements</text>
<text text-anchor="middle" x="754.0204" y="-197" font-family="Times,serif" font-size="14.00" fill="#000000">a ms</text>
</g>
<!-- b -->
<g id="node2" class="node">
<title>b</title>
<polygon fill="none" stroke="#000000" points="857.6793,-135.8019 650.3615,-135.8019 650.3615,-94.5981 857.6793,-94.5981 857.6793,-135.8019"/>
<text text-anchor="middle" x="754.0204" y="-119.4" font-family="Times,serif" font-size="14.00" fill="#000000">receive motors velocity dictionary</text>
<text text-anchor="middle" x="754.0204" y="-102.6" font-family="Times,serif" font-size="14.00" fill="#000000">~1 ms</text>
</g>
<!-- a&#45;&gt;b -->
<g id="edge1" class="edge">
<title>a&#45;&gt;b</title>
<path fill="none" stroke="#000000" d="M754.0204,-188.6496C754.0204,-176.1835 754.0204,-160.1355 754.0204,-146.2214"/>
<polygon fill="#000000" stroke="#000000" points="757.5205,-146.0918 754.0204,-136.0919 750.5205,-146.0919 757.5205,-146.0918"/>
<text text-anchor="middle" x="798.1512" y="-158.2" font-family="Times,serif" font-size="14.00" fill="#000000"> block for 20ms</text>
</g>
<!-- d -->
<g id="node4" class="node">
<title>d</title>
<polygon fill="none" stroke="#000000" points="250.0612,-135.8019 -.0204,-135.8019 -.0204,-94.5981 250.0612,-94.5981 250.0612,-135.8019"/>
<text text-anchor="middle" x="125.0204" y="-119.4" font-family="Times,serif" font-size="14.00" fill="#000000">abstract sensor measurements into signals</text>
<text text-anchor="middle" x="125.0204" y="-102.6" font-family="Times,serif" font-size="14.00" fill="#000000">~5 ms a signal</text>
</g>
<!-- a&#45;&gt;d -->
<g id="edge4" class="edge">
<title>a&#45;&gt;d</title>
<path fill="none" stroke="#000000" d="M663.2302,-195.9742C557.5868,-180.1193 382.119,-153.7852 260.38,-135.5147"/>
<polygon fill="#000000" stroke="#000000" points="260.6517,-132.0164 250.243,-133.9933 259.6127,-138.9388 260.6517,-132.0164"/>
<text text-anchor="middle" x="494.2243" y="-158.2" font-family="Times,serif" font-size="14.00" fill="#000000">~3 ms</text>
</g>
<!-- c -->
<g id="node3" class="node">
<title>c</title>
<polygon fill="none" stroke="#000000" points="831.9868,-41.4019 676.054,-41.4019 676.054,-.1981 831.9868,-.1981 831.9868,-41.4019"/>
<text text-anchor="middle" x="754.0204" y="-25" font-family="Times,serif" font-size="14.00" fill="#000000">update motors actuations</text>
<text text-anchor="middle" x="754.0204" y="-8.2" font-family="Times,serif" font-size="14.00" fill="#000000">b ms</text>
</g>
<!-- b&#45;&gt;c -->
<g id="edge2" class="edge">
<title>b&#45;&gt;c</title>
<path fill="none" stroke="#000000" d="M754.0204,-94.2496C754.0204,-81.7835 754.0204,-65.7355 754.0204,-51.8214"/>
<polygon fill="#000000" stroke="#000000" points="757.5205,-51.6918 754.0204,-41.6919 750.5205,-51.6919 757.5205,-51.6918"/>
<text text-anchor="middle" x="769.188" y="-63.8" font-family="Times,serif" font-size="14.00" fill="#000000"> 0 ms</text>
</g>
<!-- c&#45;&gt;a -->
<g id="edge3" class="edge">
<title>c:e&#45;&gt;a:e</title>
<path fill="none" stroke="#000000" d="M832.0204,-20.8C912.5161,-20.8 927.8817,-193.7236 855.3269,-208.5842"/>
<polygon fill="#000000" stroke="#000000" points="854.6289,-205.136 845.0204,-209.6 855.3155,-212.1022 854.6289,-205.136"/>
<text text-anchor="middle" x="992.1975" y="-119.4" font-family="Times,serif" font-size="14.00" fill="#000000"> a control loop time step (32 ms)</text>
<text text-anchor="middle" x="992.1975" y="-102.6" font-family="Times,serif" font-size="14.00" fill="#000000">goes in the simulation</text>
</g>
<!-- e -->
<g id="node5" class="node">
<title>e</title>
<polygon fill="none" stroke="#000000" points="402.9398,-135.8019 301.101,-135.8019 301.101,-94.5981 402.9398,-94.5981 402.9398,-135.8019"/>
<text text-anchor="middle" x="352.0204" y="-119.4" font-family="Times,serif" font-size="14.00" fill="#000000">make decisions</text>
<text text-anchor="middle" x="352.0204" y="-102.6" font-family="Times,serif" font-size="14.00" fill="#000000">0 ms</text>
</g>
<!-- d&#45;&gt;e -->
<g id="edge5" class="edge">
<title>d&#45;&gt;e</title>
<path fill="none" stroke="#000000" d="M250.1405,-115.2C264.333,-115.2 278.2806,-115.2 291.083,-115.2"/>
<polygon fill="#000000" stroke="#000000" points="291.0877,-118.7001 301.0877,-115.2 291.0876,-111.7001 291.0877,-118.7001"/>
<text text-anchor="middle" x="275.5508" y="-122.4" font-family="Times,serif" font-size="14.00" fill="#000000">~1 ms</text>
</g>
<!-- f -->
<g id="node6" class="node">
<title>f</title>
<polygon fill="none" stroke="#000000" points="587.9377,-135.8019 454.1031,-135.8019 454.1031,-94.5981 587.9377,-94.5981 587.9377,-135.8019"/>
<text text-anchor="middle" x="521.0204" y="-119.4" font-family="Times,serif" font-size="14.00" fill="#000000">control motors speed</text>
<text text-anchor="middle" x="521.0204" y="-102.6" font-family="Times,serif" font-size="14.00" fill="#000000">0 ms</text>
</g>
<!-- e&#45;&gt;f -->
<g id="edge6" class="edge">
<title>e&#45;&gt;f</title>
<path fill="none" stroke="#000000" d="M403.1846,-115.2C416.0836,-115.2 430.2169,-115.2 444.0768,-115.2"/>
<polygon fill="#000000" stroke="#000000" points="444.0992,-118.7001 454.0991,-115.2 444.0991,-111.7001 444.0992,-118.7001"/>
<text text-anchor="middle" x="428.6461" y="-122.4" font-family="Times,serif" font-size="14.00" fill="#000000">~1 ms</text>
</g>
<!-- f&#45;&gt;b -->
<g id="edge7" class="edge">
<title>f&#45;&gt;b</title>
<path fill="none" stroke="#000000" d="M587.7888,-115.2C604.0887,-115.2 621.9874,-115.2 639.8145,-115.2"/>
<polygon fill="#000000" stroke="#000000" points="640.29,-118.7001 650.29,-115.2 640.2899,-111.7001 640.29,-118.7001"/>
<text text-anchor="middle" x="618.9599" y="-122.4" font-family="Times,serif" font-size="14.00" fill="#000000">0 ms</text>
</g>
<!-- f&#45;&gt;f -->
<g id="edge8" class="edge">
<title>f:s&#45;&gt;f:ne</title>
<path fill="none" stroke="#000000" d="M521.0204,-94.2C549.2565,-82.7 605.7287,-82.7 605.7287,-115.2 605.7287,-136.5281 600.5607,-143.8597 595.3945,-143.1297"/>
<polygon fill="#000000" stroke="#000000" points="597.7045,-140.4976 588.0204,-136.2 592.9108,-145.5987 597.7045,-140.4976"/>
<text text-anchor="middle" x="552.8272" y="-140.4" font-family="Times,serif" font-size="14.00" fill="#000000">loop of 5 ms</text>
</g>
</g>
</svg>
