<?xml version="1.0" encoding="UTF-8" standalone="no"?>
<!DOCTYPE svg PUBLIC "-//W3C//DTD SVG 1.1//EN"
 "http://www.w3.org/Graphics/SVG/1.1/DTD/svg11.dtd">
<!-- Generated by graphviz version 2.40.1 (20161225.0304)
 -->
<!-- Title: G Pages: 1 -->
<svg width="731pt" height="163pt"
 viewBox="0.00 0.00 731.19 162.60" xmlns="http://www.w3.org/2000/svg" xmlns:xlink="http://www.w3.org/1999/xlink">
<g id="graph0" class="graph" transform="scale(1 1) rotate(0) translate(4 158.5976)">
<title>G</title>
<polygon fill="#ffffff" stroke="transparent" points="-4,4 -4,-158.5976 727.188,-158.5976 727.188,4 -4,4"/>
<!-- detector_process -->
<g id="node1" class="node">
<title>detector_process</title>
<ellipse fill="none" stroke="#000000" cx="75.9206" cy="-72.9976" rx="75.8412" ry="18"/>
<text text-anchor="middle" x="75.9206" y="-68.7976" font-family="Times,serif" font-size="14.00" fill="#000000">detector_process</text>
</g>
<!-- decider_process -->
<g id="node2" class="node">
<title>decider_process</title>
<ellipse fill="none" stroke="#000000" cx="344.2688" cy="-72.9976" rx="73.4745" ry="18"/>
<text text-anchor="middle" x="344.2688" y="-68.7976" font-family="Times,serif" font-size="14.00" fill="#000000">decider_process</text>
</g>
<!-- detector_process&#45;&gt;decider_process -->
<g id="edge1" class="edge">
<title>detector_process:se&#45;&gt;decider_process:sw</title>
<path fill="none" stroke="#000000" d="M93.9206,-54.9976C164.5161,15.5979 247.532,17.9419 318.9523,-47.9657"/>
<polygon fill="#000000" stroke="#000000" points="316.6336,-50.5915 326.2688,-54.9976 321.4843,-45.5446 316.6336,-50.5915"/>
<text text-anchor="middle" x="211.4365" y="-27.9976" font-family="Times,serif" font-size="14.00" fill="#000000">signals</text>
<text text-anchor="middle" x="211.4365" y="-11.1976" font-family="Times,serif" font-size="14.00" fill="#000000">(signal_queue)</text>
</g>
<!-- controller_process -->
<g id="node3" class="node">
<title>controller_process</title>
<ellipse fill="none" stroke="#000000" cx="640.8273" cy="-72.9976" rx="82.2218" ry="18"/>
<text text-anchor="middle" x="640.8273" y="-68.7976" font-family="Times,serif" font-size="14.00" fill="#000000">controller_process</text>
</g>
<!-- decider_process&#45;&gt;controller_process -->
<g id="edge2" class="edge">
<title>decider_process:ne&#45;&gt;controller_process:nw</title>
<path fill="none" stroke="#000000" d="M362.2688,-90.9976C400.9725,-129.7014 562.754,-131.818 614.9194,-97.3475"/>
<polygon fill="#000000" stroke="#000000" points="617.2213,-99.9878 622.8273,-90.9976 612.8385,-94.5297 617.2213,-99.9878"/>
<text text-anchor="middle" x="487.9861" y="-141.9976" font-family="Times,serif" font-size="14.00" fill="#000000">commands</text>
<text text-anchor="middle" x="487.9861" y="-125.1976" font-family="Times,serif" font-size="14.00" fill="#000000">(command_queue)</text>
</g>
</g>
</svg>
