<?xml version="1.0" encoding="UTF-8" standalone="no"?>
<!DOCTYPE svg PUBLIC "-//W3C//DTD SVG 1.1//EN"
 "http://www.w3.org/Graphics/SVG/1.1/DTD/svg11.dtd">
<!-- Generated by graphviz version 2.40.1 (20161225.0304)
 -->
<!-- Title: G Pages: 1 -->
<svg width="549pt" height="350pt"
 viewBox="0.00 0.00 548.73 349.80" xmlns="http://www.w3.org/2000/svg" xmlns:xlink="http://www.w3.org/1999/xlink">
<g id="graph0" class="graph" transform="scale(1 1) rotate(0) translate(4 345.8)">
<title>G</title>
<polygon fill="#ffffff" stroke="transparent" points="-4,4 -4,-345.8 544.7329,-345.8 544.7329,4 -4,4"/>
<g id="clust2" class="cluster">
<title>cluster0</title>
<polygon fill="none" stroke="#000000" points="99.0323,-152.8 99.0323,-229.6 406.0323,-229.6 406.0323,-152.8 99.0323,-152.8"/>
<text text-anchor="middle" x="252.5323" y="-213" font-family="Times,serif" font-size="14.00" fill="#000000">main_process</text>
</g>
<!-- keyboard input -->
<g id="node1" class="node">
<title>keyboard input</title>
<text text-anchor="middle" x="109.0323" y="-319.6" font-family="Times,serif" font-size="14.00" fill="#000000">keyboard input</text>
</g>
<!-- key -->
<g id="node8" class="node">
<title>key</title>
<polygon fill="#c0c0c0" stroke="transparent" points="161.0323,-196.8 107.0323,-196.8 107.0323,-160.8 161.0323,-160.8 161.0323,-196.8"/>
<text text-anchor="middle" x="134.0323" y="-174.6" font-family="Times,serif" font-size="14.00" fill="#000000">key</text>
</g>
<!-- keyboard input&#45;&gt;key -->
<g id="edge10" class="edge">
<title>keyboard input&#45;&gt;key</title>
<path fill="none" stroke="#000000" d="M112.148,-305.7288C116.4147,-280.9821 124.119,-236.2973 129.1543,-207.0926"/>
<polygon fill="#000000" stroke="#000000" points="132.6273,-207.5482 130.8773,-197.0989 125.7291,-206.3588 132.6273,-207.5482"/>
</g>
<!-- webots pause signal -->
<g id="node2" class="node">
<title>webots pause signal</title>
<text text-anchor="middle" x="241.0323" y="-319.6" font-family="Times,serif" font-size="14.00" fill="#000000">webots pause signal</text>
</g>
<!-- flag_pause -->
<g id="node6" class="node">
<title>flag_pause</title>
<polygon fill="#c0c0c0" stroke="transparent" points="255.1727,-196.8 178.8919,-196.8 178.8919,-160.8 255.1727,-160.8 255.1727,-196.8"/>
<text text-anchor="middle" x="217.0323" y="-174.6" font-family="Times,serif" font-size="14.00" fill="#000000">flag_pause</text>
</g>
<!-- webots pause signal&#45;&gt;flag_pause -->
<g id="edge9" class="edge">
<title>webots pause signal&#45;&gt;flag_pause</title>
<path fill="none" stroke="#000000" d="M238.0412,-305.7288C233.9452,-280.9821 226.5491,-236.2973 221.7152,-207.0926"/>
<polygon fill="#000000" stroke="#000000" points="225.1471,-206.3931 220.0611,-197.0989 218.2411,-207.5362 225.1471,-206.3931"/>
</g>
<!-- detector_process -->
<g id="node3" class="node">
<title>detector_process</title>
<polygon fill="none" stroke="#000000" points="110.0969,-36 -.0323,-36 -.0323,0 110.0969,0 110.0969,-36"/>
<text text-anchor="middle" x="55.0323" y="-13.8" font-family="Times,serif" font-size="14.00" fill="#000000">detector_process</text>
</g>
<!-- decider_process -->
<g id="node4" class="node">
<title>decider_process</title>
<polygon fill="none" stroke="#000000" points="308.2064,-36 201.8582,-36 201.8582,0 308.2064,0 308.2064,-36"/>
<text text-anchor="middle" x="255.0323" y="-13.8" font-family="Times,serif" font-size="14.00" fill="#000000">decider_process</text>
</g>
<!-- detector_process&#45;&gt;decider_process -->
<g id="edge1" class="edge">
<title>detector_process&#45;&gt;decider_process</title>
<path fill="none" stroke="#0000ff" d="M110.2126,-18C135.4247,-18 165.4292,-18 191.5711,-18"/>
<polygon fill="#0000ff" stroke="#0000ff" points="191.7572,-21.5001 201.7571,-18 191.7571,-14.5001 191.7572,-21.5001"/>
<text text-anchor="middle" x="156.005" y="-25.2" font-family="Times,serif" font-size="14.00" fill="#0000ff">signal_queue</text>
</g>
<!-- controller_process -->
<g id="node5" class="node">
<title>controller_process</title>
<polygon fill="none" stroke="#000000" points="540.9342,-36 421.1304,-36 421.1304,0 540.9342,0 540.9342,-36"/>
<text text-anchor="middle" x="481.0323" y="-13.8" font-family="Times,serif" font-size="14.00" fill="#000000">controller_process</text>
</g>
<!-- decider_process&#45;&gt;controller_process -->
<g id="edge2" class="edge">
<title>decider_process&#45;&gt;controller_process</title>
<path fill="none" stroke="#0000ff" d="M308.305,-18C338.9355,-18 377.7827,-18 410.8755,-18"/>
<polygon fill="#0000ff" stroke="#0000ff" points="410.9455,-21.5001 420.9455,-18 410.9454,-14.5001 410.9455,-21.5001"/>
<text text-anchor="middle" x="364.7255" y="-25.2" font-family="Times,serif" font-size="14.00" fill="#0000ff">command_queue</text>
</g>
<!-- flag_patio_finished -->
<g id="node7" class="node">
<title>flag_patio_finished</title>
<polygon fill="#c0c0c0" stroke="transparent" points="398.395,-196.8 273.6696,-196.8 273.6696,-160.8 398.395,-160.8 398.395,-196.8"/>
<text text-anchor="middle" x="336.0323" y="-174.6" font-family="Times,serif" font-size="14.00" fill="#000000">flag_patio_finished</text>
</g>
<!-- controller_process&#45;&gt;flag_patio_finished -->
<g id="edge12" class="edge">
<title>controller_process&#45;&gt;flag_patio_finished</title>
<path fill="none" stroke="#0000ff" d="M464.5181,-36.3137C440.6754,-62.7544 396.2025,-112.0733 366.3539,-145.1744"/>
<polygon fill="#0000ff" stroke="#0000ff" points="363.5728,-143.0322 359.4753,-152.8026 368.7714,-147.7199 363.5728,-143.0322"/>
<text text-anchor="middle" x="451.6901" y="-94.2" font-family="Times,serif" font-size="14.00" fill="#0000ff">motors_queue</text>
</g>
<!-- flag_pause&#45;&gt;detector_process -->
<g id="edge3" class="edge">
<title>flag_pause&#45;&gt;detector_process</title>
<path fill="none" stroke="#000000" stroke-dasharray="5,2" d="M219.311,-160.6318C220.7428,-141.2738 220.0385,-110.6334 205.0323,-90 182.5203,-59.0462 143.1287,-40.8466 110.3612,-30.4906"/>
</g>
<!-- flag_pause&#45;&gt;detector_process -->
<g id="edge11" class="edge">
<title>flag_pause&#45;&gt;detector_process</title>
<path fill="none" stroke="#0000ff" d="M176.0595,-152.8027C157.6809,-140.1174 136.3687,-123.9148 119.3941,-106.8 100.7277,-87.9794 83.3291,-63.3669 71.3399,-44.8281"/>
<polygon fill="#0000ff" stroke="#0000ff" points="74.2204,-42.8351 65.907,-36.2672 68.3101,-46.5859 74.2204,-42.8351"/>
<text text-anchor="middle" x="160.8514" y="-94.2" font-family="Times,serif" font-size="14.00" fill="#0000ff">sensors_queue</text>
</g>
<!-- flag_pause&#45;&gt;decider_process -->
<g id="edge5" class="edge">
<title>flag_pause&#45;&gt;decider_process</title>
<path fill="none" stroke="#00ff00" stroke-dasharray="5,2" d="M223.6553,-150.7742C230.5778,-121.4811 241.3809,-75.7669 248.3321,-46.3525"/>
<polygon fill="#00ff00" stroke="#00ff00" points="220.2112,-150.1299 221.3175,-160.6668 227.0236,-151.7398 220.2112,-150.1299"/>
<polygon fill="#00ff00" stroke="#00ff00" points="251.8107,-46.8506 250.7044,-36.3137 244.9983,-45.2407 251.8107,-46.8506"/>
<text text-anchor="middle" x="249.0849" y="-94.2" font-family="Times,serif" font-size="14.00" fill="#00ff00">lock</text>
</g>
<!-- flag_pause&#45;&gt;controller_process -->
<g id="edge4" class="edge">
<title>flag_pause&#45;&gt;controller_process</title>
<path fill="none" stroke="#000000" stroke-dasharray="5,2" d="M233.0003,-160.4656C250.7438,-140.9654 281.0056,-110.2044 312.0323,-90 347.4431,-66.9408 391.4711,-48.4636 425.71,-36.0026"/>
</g>
<!-- flag_patio_finished&#45;&gt;decider_process -->
<g id="edge6" class="edge">
<title>flag_patio_finished&#45;&gt;decider_process</title>
<path fill="none" stroke="#00ff00" stroke-dasharray="5,2" d="M322.3428,-151.6238C307.4293,-122.0178 283.7099,-74.9303 268.7754,-45.2825"/>
<polygon fill="#00ff00" stroke="#00ff00" points="319.2734,-153.3104 326.898,-160.6668 325.525,-150.1613 319.2734,-153.3104"/>
<polygon fill="#00ff00" stroke="#00ff00" points="271.8821,-43.67 264.2575,-36.3137 265.6305,-46.8192 271.8821,-43.67"/>
<text text-anchor="middle" x="309.0849" y="-94.2" font-family="Times,serif" font-size="14.00" fill="#00ff00">lock</text>
</g>
<!-- key&#45;&gt;detector_process -->
<g id="edge7" class="edge">
<title>key&#45;&gt;detector_process</title>
<path fill="none" stroke="#000000" stroke-dasharray="5,2" d="M115.061,-160.6629C101.9091,-147.0404 85.0259,-127.2783 75.0323,-106.8 63.8739,-83.9348 58.8402,-54.7073 56.6409,-36.1638"/>
</g>
<!-- key&#45;&gt;decider_process -->
<g id="edge8" class="edge">
<title>key&#45;&gt;decider_process</title>
<path fill="none" stroke="#000000" stroke-dasharray="5,2" d="M118.8411,-160.716C105.058,-141.9757 88.8865,-112.3532 103.0323,-90 124.5803,-55.9498 167.0663,-37.6876 201.6549,-28.0866"/>
</g>
</g>
</svg>
