<?xml version="1.0" encoding="UTF-8" standalone="no"?>
<!DOCTYPE svg PUBLIC "-//W3C//DTD SVG 1.1//EN"
 "http://www.w3.org/Graphics/SVG/1.1/DTD/svg11.dtd">
<!-- Generated by graphviz version 2.40.1 (20161225.0304)
 -->
<!-- Title: Task1 Pages: 1 -->
<svg width="750pt" height="1120pt"
 viewBox="0.00 0.00 750.00 1120.40" xmlns="http://www.w3.org/2000/svg" xmlns:xlink="http://www.w3.org/1999/xlink">
<g id="graph0" class="graph" transform="scale(1 1) rotate(0) translate(4 1116.4)">
<title>Task1</title>
<polygon fill="#ffffff" stroke="transparent" points="-4,4 -4,-1116.4 746,-1116.4 746,4 -4,4"/>
<text text-anchor="middle" x="371" y="-8.2" font-family="Times,serif" font-size="14.00" fill="#000000">Task1</text>
<g id="clust1" class="cluster">
<title>cluster0</title>
<polygon fill="none" stroke="#000000" points="8,-858.8 8,-1104.4 220,-1104.4 220,-858.8 8,-858.8"/>
<text text-anchor="middle" x="114" y="-1087.8" font-family="Times,serif" font-size="14.00" fill="#000000">Start</text>
</g>
<g id="clust2" class="cluster">
<title>cluster1</title>
<polygon fill="none" stroke="#000000" points="228,-785.8 228,-1008.6 452,-1008.6 452,-785.8 228,-785.8"/>
<text text-anchor="middle" x="340" y="-992" font-family="Times,serif" font-size="14.00" fill="#000000">line patrol</text>
</g>
<g id="clust3" class="cluster">
<title>cluster2</title>
<polygon fill="none" stroke="#000000" points="345,-674.2 345,-751 543,-751 543,-674.2 345,-674.2"/>
<text text-anchor="middle" x="444" y="-734.4" font-family="Times,serif" font-size="14.00" fill="#000000">Task1</text>
</g>
<g id="clust4" class="cluster">
<title>cluster3</title>
<polygon fill="none" stroke="#000000" points="336,-32.8 336,-655.2 734,-655.2 734,-32.8 336,-32.8"/>
<text text-anchor="middle" x="535" y="-638.6" font-family="Times,serif" font-size="14.00" fill="#000000">cross bridge</text>
</g>
<g id="clust5" class="cluster">
<title>cluster4</title>
<polygon fill="none" stroke="#000000" points="86,-359.4 86,-751 328,-751 328,-359.4 86,-359.4"/>
<text text-anchor="middle" x="207" y="-734.4" font-family="Times,serif" font-size="14.00" fill="#000000">cross gate</text>
</g>
<!-- find line or not -->
<g id="node1" class="node">
<title>find line or not</title>
<ellipse fill="none" stroke="#000000" cx="131" cy="-1053.6" rx="68.9026" ry="18"/>
<text text-anchor="middle" x="131" y="-1049.4" font-family="Times,serif" font-size="14.00" fill="#000000">find line or not</text>
</g>
<!-- turn left -->
<g id="node2" class="node">
<title>turn left</title>
<ellipse fill="none" stroke="#000000" cx="58" cy="-884.8" rx="41.7504" ry="18"/>
<text text-anchor="middle" x="58" y="-880.6" font-family="Times,serif" font-size="14.00" fill="#000000">turn left</text>
</g>
<!-- find line or not&#45;&gt;turn left -->
<g id="edge1" class="edge">
<title>find line or not&#45;&gt;turn left</title>
<path fill="none" stroke="#000000" d="M100.5398,-1037.3954C89.7179,-1030.0662 78.5741,-1020.3793 71.8934,-1008.6 55.201,-979.1681 53.7219,-939.4743 55.0959,-913.0526"/>
<polygon fill="#000000" stroke="#000000" points="58.5963,-913.1665 55.794,-902.949 51.6129,-912.6839 58.5963,-913.1665"/>
<text text-anchor="middle" x="80.5533" y="-953.6" font-family="Times,serif" font-size="14.00" fill="#000000">No</text>
</g>
<!-- turn right -->
<g id="node3" class="node">
<title>turn right</title>
<ellipse fill="none" stroke="#000000" cx="165" cy="-884.8" rx="47.4917" ry="18"/>
<text text-anchor="middle" x="165" y="-880.6" font-family="Times,serif" font-size="14.00" fill="#000000">turn right</text>
</g>
<!-- find line or not&#45;&gt;turn right -->
<g id="edge2" class="edge">
<title>find line or not&#45;&gt;turn right</title>
<path fill="none" stroke="#000000" d="M131.9461,-1035.2383C133.4102,-1012.5507 136.936,-972.8919 144.8934,-939.8 147.0802,-930.7059 150.292,-921.0449 153.5097,-912.399"/>
<polygon fill="#000000" stroke="#000000" points="156.8756,-913.3995 157.2286,-902.8105 150.3493,-910.8682 156.8756,-913.3995"/>
<text text-anchor="middle" x="152.5533" y="-953.6" font-family="Times,serif" font-size="14.00" fill="#000000">No</text>
</g>
<!-- return deviation value -->
<g id="node4" class="node">
<title>return deviation value</title>
<ellipse fill="none" stroke="#000000" cx="332" cy="-957.8" rx="95.5491" ry="18"/>
<text text-anchor="middle" x="332" y="-953.6" font-family="Times,serif" font-size="14.00" fill="#000000">return deviation value</text>
</g>
<!-- find line or not&#45;&gt;return deviation value -->
<g id="edge17" class="edge">
<title>find line or not&#45;&gt;return deviation value</title>
<path fill="none" stroke="#000000" d="M164.1911,-1037.7806C197.9068,-1021.7111 250.3276,-996.7265 287.6005,-978.9616"/>
<polygon fill="#000000" stroke="#000000" points="289.2084,-982.0725 296.7297,-974.6104 286.1967,-975.7535 289.2084,-982.0725"/>
</g>
<!-- turn left&#45;&gt;find line or not -->
<g id="edge3" class="edge">
<title>turn left&#45;&gt;find line or not</title>
<path fill="none" stroke="#000000" d="M68.7878,-902.2575C75.1153,-912.8873 83.0159,-926.8683 89,-939.8 102.2512,-968.4358 114.378,-1002.5331 122.1575,-1025.8902"/>
<polygon fill="#000000" stroke="#000000" points="118.8687,-1027.0935 125.3151,-1035.5015 125.519,-1024.9086 118.8687,-1027.0935"/>
</g>
<!-- turn right&#45;&gt;find line or not -->
<g id="edge4" class="edge">
<title>turn right&#45;&gt;find line or not</title>
<path fill="none" stroke="#000000" d="M167.7253,-902.9689C170.7163,-927.5902 173.6774,-972.6081 162,-1008.6 159.925,-1014.9956 156.6228,-1021.2991 152.932,-1027.0713"/>
<polygon fill="#000000" stroke="#000000" points="149.8003,-1025.4419 146.9328,-1035.6414 155.5349,-1029.4562 149.8003,-1025.4419"/>
</g>
<!-- drive ahead -->
<g id="node5" class="node">
<title>drive ahead</title>
<ellipse fill="none" stroke="#000000" cx="292" cy="-811.8" rx="55.6206" ry="18"/>
<text text-anchor="middle" x="292" y="-807.6" font-family="Times,serif" font-size="14.00" fill="#000000">drive ahead</text>
</g>
<!-- return deviation value&#45;&gt;drive ahead -->
<g id="edge5" class="edge">
<title>return deviation value&#45;&gt;drive ahead</title>
<path fill="none" stroke="#000000" d="M301.9897,-940.5896C288.8156,-931.2639 274.7257,-918.4322 267.5126,-902.8 257.9543,-882.0854 266.0739,-856.9382 275.4491,-838.333"/>
<polygon fill="#000000" stroke="#000000" points="278.54,-839.9754 280.2293,-829.5161 272.3862,-836.639 278.54,-839.9754"/>
<text text-anchor="middle" x="300.2437" y="-880.6" font-family="Times,serif" font-size="14.00" fill="#000000">straight line</text>
</g>
<!-- turning -->
<g id="node6" class="node">
<title>turning</title>
<ellipse fill="none" stroke="#000000" cx="405" cy="-811.8" rx="38.8652" ry="18"/>
<text text-anchor="middle" x="405" y="-807.6" font-family="Times,serif" font-size="14.00" fill="#000000">turning</text>
</g>
<!-- return deviation value&#45;&gt;turning -->
<g id="edge6" class="edge">
<title>return deviation value&#45;&gt;turning</title>
<path fill="none" stroke="#000000" d="M341.0979,-939.6042C353.7346,-914.3308 376.6978,-868.4043 391.3814,-839.0372"/>
<polygon fill="#000000" stroke="#000000" points="394.6751,-840.276 396.0168,-829.7665 388.4141,-837.1455 394.6751,-840.276"/>
<text text-anchor="middle" x="424.939" y="-880.6" font-family="Times,serif" font-size="14.00" fill="#000000">not straight line</text>
</g>
<!-- look for beacon T2 -->
<g id="node15" class="node">
<title>look for beacon T2</title>
<ellipse fill="none" stroke="#000000" cx="207" cy="-700.2" rx="84.5602" ry="18"/>
<text text-anchor="middle" x="207" y="-696" font-family="Times,serif" font-size="14.00" fill="#000000">look for beacon T2</text>
</g>
<!-- drive ahead&#45;&gt;look for beacon T2 -->
<g id="edge15" class="edge">
<title>drive ahead&#45;&gt;look for beacon T2</title>
<path fill="none" stroke="#000000" d="M287.0327,-793.6945C283.5761,-783.0126 278.2744,-769.5619 271,-759 262.099,-746.0765 249.8676,-733.949 238.4807,-724.1037"/>
<polygon fill="#000000" stroke="#000000" points="240.7012,-721.3981 230.7837,-717.6706 236.2121,-726.7692 240.7012,-721.3981"/>
</g>
<!-- turn 180 -->
<g id="node7" class="node">
<title>turn 180</title>
<ellipse fill="none" stroke="#000000" cx="396" cy="-700.2" rx="43.4831" ry="18"/>
<text text-anchor="middle" x="396" y="-696" font-family="Times,serif" font-size="14.00" fill="#000000">turn 180</text>
</g>
<!-- turning&#45;&gt;turn 180 -->
<g id="edge18" class="edge">
<title>turning&#45;&gt;turn 180</title>
<path fill="none" stroke="#000000" d="M403.5138,-793.3715C402.0853,-775.6577 399.9068,-748.6448 398.2628,-728.2581"/>
<polygon fill="#000000" stroke="#000000" points="401.7511,-727.9718 397.4585,-718.2856 394.7738,-728.5346 401.7511,-727.9718"/>
<text text-anchor="middle" x="420.4716" y="-763.2" font-family="Times,serif" font-size="14.00" fill="#000000">not T1</text>
</g>
<!-- turn 90 -->
<g id="node8" class="node">
<title>turn 90</title>
<ellipse fill="none" stroke="#000000" cx="496" cy="-700.2" rx="38.8269" ry="18"/>
<text text-anchor="middle" x="496" y="-696" font-family="Times,serif" font-size="14.00" fill="#000000">turn 90</text>
</g>
<!-- turning&#45;&gt;turn 90 -->
<g id="edge19" class="edge">
<title>turning&#45;&gt;turn 90</title>
<path fill="none" stroke="#000000" d="M423.5211,-795.6527C429.966,-789.6786 437.0631,-782.6803 443,-775.8 456.3547,-760.3232 469.5567,-741.5047 479.4439,-726.5149"/>
<polygon fill="#000000" stroke="#000000" points="482.6313,-728.0332 485.1435,-717.7405 476.761,-724.22 482.6313,-728.0332"/>
<text text-anchor="middle" x="462.7763" y="-763.2" font-family="Times,serif" font-size="14.00" fill="#000000">T1</text>
</g>
<!-- turn 180&#45;&gt;drive ahead -->
<g id="edge20" class="edge">
<title>turn 180&#45;&gt;drive ahead</title>
<path fill="none" stroke="#000000" d="M376.6116,-716.3271C363.4144,-727.6894 345.8669,-743.5706 331.8436,-759 324.2345,-767.3721 316.5813,-777.1198 310.0447,-785.9446"/>
<polygon fill="#000000" stroke="#000000" points="307.2039,-783.9001 304.1578,-794.0476 312.8671,-788.0145 307.2039,-783.9001"/>
<text text-anchor="middle" x="363.0782" y="-763.2" font-family="Times,serif" font-size="14.00" fill="#000000">end turning</text>
</g>
<!-- aim bridge or not -->
<g id="node9" class="node">
<title>aim bridge or not</title>
<ellipse fill="none" stroke="#000000" cx="551" cy="-604.4" rx="77.6329" ry="18"/>
<text text-anchor="middle" x="551" y="-600.2" font-family="Times,serif" font-size="14.00" fill="#000000">aim bridge or not</text>
</g>
<!-- turn 90&#45;&gt;aim bridge or not -->
<g id="edge21" class="edge">
<title>turn 90&#45;&gt;aim bridge or not</title>
<path fill="none" stroke="#000000" d="M506.0878,-682.6288C514.2798,-668.3599 525.9737,-647.9913 535.3755,-631.6151"/>
<polygon fill="#000000" stroke="#000000" points="538.6588,-632.9258 540.6024,-622.5107 532.5881,-629.4405 538.6588,-632.9258"/>
</g>
<!-- drive ahead cross bridge -->
<g id="node10" class="node">
<title>drive ahead cross bridge</title>
<ellipse fill="none" stroke="#000000" cx="449" cy="-458.4" rx="105.3006" ry="18"/>
<text text-anchor="middle" x="449" y="-454.2" font-family="Times,serif" font-size="14.00" fill="#000000">drive ahead cross bridge</text>
</g>
<!-- aim bridge or not&#45;&gt;drive ahead cross bridge -->
<g id="edge7" class="edge">
<title>aim bridge or not&#45;&gt;drive ahead cross bridge</title>
<path fill="none" stroke="#000000" d="M538.4928,-586.4975C520.7515,-561.1032 488.1525,-514.4418 467.5787,-484.993"/>
<polygon fill="#000000" stroke="#000000" points="470.2058,-482.642 461.6095,-476.4489 464.4675,-486.651 470.2058,-482.642"/>
<text text-anchor="middle" x="521.8829" y="-527.2" font-family="Times,serif" font-size="14.00" fill="#000000">Yes</text>
</g>
<!-- adjust for aiming -->
<g id="node11" class="node">
<title>adjust for aiming</title>
<ellipse fill="none" stroke="#000000" cx="649" cy="-458.4" rx="77.0255" ry="18"/>
<text text-anchor="middle" x="649" y="-454.2" font-family="Times,serif" font-size="14.00" fill="#000000">adjust for aiming</text>
</g>
<!-- aim bridge or not&#45;&gt;adjust for aiming -->
<g id="edge8" class="edge">
<title>aim bridge or not&#45;&gt;adjust for aiming</title>
<path fill="none" stroke="#000000" d="M561.1002,-586.2083C571.6647,-567.5416 589.0282,-537.8533 605.8934,-513.4 612.6435,-503.6128 620.5427,-493.2589 627.7219,-484.2065"/>
<polygon fill="#000000" stroke="#000000" points="630.5282,-486.3017 634.0591,-476.3125 625.0695,-481.9195 630.5282,-486.3017"/>
<text text-anchor="middle" x="613.5533" y="-527.2" font-family="Times,serif" font-size="14.00" fill="#000000">No</text>
</g>
<!-- up -->
<g id="node12" class="node">
<title>up</title>
<ellipse fill="none" stroke="#000000" cx="442" cy="-296.6" rx="27" ry="18"/>
<text text-anchor="middle" x="442" y="-292.4" font-family="Times,serif" font-size="14.00" fill="#000000">up</text>
</g>
<!-- drive ahead cross bridge&#45;&gt;up -->
<g id="edge10" class="edge">
<title>drive ahead cross bridge&#45;&gt;up</title>
<path fill="none" stroke="#000000" d="M448.2106,-440.154C447.0028,-412.2351 444.6851,-358.6651 443.248,-325.4464"/>
<polygon fill="#000000" stroke="#000000" points="446.7263,-324.8669 442.7972,-315.0276 439.7328,-325.1695 446.7263,-324.8669"/>
</g>
<!-- adjust for aiming&#45;&gt;aim bridge or not -->
<g id="edge9" class="edge">
<title>adjust for aiming&#45;&gt;aim bridge or not</title>
<path fill="none" stroke="#000000" d="M647.2209,-476.5844C644.5804,-496.051 638.1792,-527.1355 623,-549.4 614.2888,-562.1774 601.6498,-573.2524 589.3844,-582.0481"/>
<polygon fill="#000000" stroke="#000000" points="587.2925,-579.2383 581.0056,-587.7662 591.2384,-585.0202 587.2925,-579.2383"/>
</g>
<!-- up and stop -->
<g id="node13" class="node">
<title>up and stop</title>
<ellipse fill="none" stroke="#000000" cx="412" cy="-169.8" rx="55.6236" ry="18"/>
<text text-anchor="middle" x="412" y="-165.6" font-family="Times,serif" font-size="14.00" fill="#000000">up and stop</text>
</g>
<!-- up&#45;&gt;up and stop -->
<g id="edge11" class="edge">
<title>up&#45;&gt;up and stop</title>
<path fill="none" stroke="#000000" d="M437.7654,-278.7016C432.7907,-257.6755 424.4773,-222.5374 418.6423,-197.8747"/>
<polygon fill="#000000" stroke="#000000" points="422.0187,-196.9434 416.3102,-188.0179 415.2067,-198.5551 422.0187,-196.9434"/>
<text text-anchor="middle" x="446.8573" y="-229" font-family="Times,serif" font-size="14.00" fill="#000000">up end</text>
</g>
<!-- down -->
<g id="node14" class="node">
<title>down</title>
<ellipse fill="none" stroke="#000000" cx="394" cy="-58.8" rx="32.4865" ry="18"/>
<text text-anchor="middle" x="394" y="-54.6" font-family="Times,serif" font-size="14.00" fill="#000000">down</text>
</g>
<!-- up and stop&#45;&gt;down -->
<g id="edge12" class="edge">
<title>up and stop&#45;&gt;down</title>
<path fill="none" stroke="#000000" d="M409.0277,-151.4706C406.1706,-133.8521 401.8137,-106.9843 398.5255,-86.7073"/>
<polygon fill="#000000" stroke="#000000" points="401.9727,-86.0991 396.917,-76.7883 395.063,-87.2197 401.9727,-86.0991"/>
</g>
<!-- down&#45;&gt;look for beacon T2 -->
<g id="edge22" class="edge">
<title>down&#45;&gt;look for beacon T2</title>
<path fill="none" stroke="#000000" d="M361.6524,-60.8995C278.903,-66.7009 66,-84.5207 66,-114.3 66,-604.4 66,-604.4 66,-604.4 66,-644.1998 104.9108,-668.6214 141.851,-682.8386"/>
<polygon fill="#000000" stroke="#000000" points="141.0837,-686.2836 151.6778,-686.4093 143.4743,-679.7045 141.0837,-686.2836"/>
<text text-anchor="middle" x="93.4106" y="-336.8" font-family="Times,serif" font-size="14.00" fill="#000000">down end</text>
</g>
<!-- look for beacon T2&#45;&gt;drive ahead -->
<g id="edge14" class="edge">
<title>look for beacon T2&#45;&gt;drive ahead</title>
<path fill="none" stroke="#000000" d="M202.0635,-718.3206C198.7106,-734.7421 196.6931,-758.8894 208.0056,-775.8 214.5555,-785.5912 224.3718,-792.7311 235.0087,-797.9341"/>
<polygon fill="#000000" stroke="#000000" points="233.9373,-801.2834 244.5061,-802.0257 236.7069,-794.8546 233.9373,-801.2834"/>
<text text-anchor="middle" x="239.4972" y="-763.2" font-family="Times,serif" font-size="14.00" fill="#000000">not find T2</text>
</g>
<!-- turn left 90 -->
<g id="node16" class="node">
<title>turn left 90</title>
<ellipse fill="none" stroke="#000000" cx="207" cy="-531.4" rx="53.8924" ry="18"/>
<text text-anchor="middle" x="207" y="-527.2" font-family="Times,serif" font-size="14.00" fill="#000000">turn left 90</text>
</g>
<!-- look for beacon T2&#45;&gt;turn left 90 -->
<g id="edge13" class="edge">
<title>look for beacon T2&#45;&gt;turn left 90</title>
<path fill="none" stroke="#000000" d="M207,-682.1354C207,-652.7691 207,-594.4586 207,-559.5978"/>
<polygon fill="#000000" stroke="#000000" points="210.5001,-559.5898 207,-549.5898 203.5001,-559.5898 210.5001,-559.5898"/>
<text text-anchor="middle" x="227.8019" y="-600.2" font-family="Times,serif" font-size="14.00" fill="#000000">find T2</text>
</g>
<!-- drive ahead and cross gate -->
<g id="node17" class="node">
<title>drive ahead and cross gate</title>
<ellipse fill="none" stroke="#000000" cx="207" cy="-385.4" rx="112.8462" ry="18"/>
<text text-anchor="middle" x="207" y="-381.2" font-family="Times,serif" font-size="14.00" fill="#000000">drive ahead and cross gate</text>
</g>
<!-- turn left 90&#45;&gt;drive ahead and cross gate -->
<g id="edge16" class="edge">
<title>turn left 90&#45;&gt;drive ahead and cross gate</title>
<path fill="none" stroke="#000000" d="M207,-513.2042C207,-488.2868 207,-443.2938 207,-413.8877"/>
<polygon fill="#000000" stroke="#000000" points="210.5001,-413.8251 207,-403.8251 203.5001,-413.8251 210.5001,-413.8251"/>
</g>
</g>
</svg>
