<?xml version="1.0" encoding="UTF-8" standalone="no"?>
<!DOCTYPE svg PUBLIC "-//W3C//DTD SVG 1.1//EN"
 "http://www.w3.org/Graphics/SVG/1.1/DTD/svg11.dtd">
<!-- Generated by graphviz version 2.40.1 (20161225.0304)
 -->
<!-- Title: Task1 Pages: 1 -->
<svg width="370pt" height="1253pt"
 viewBox="0.00 0.00 370.16 1252.60" xmlns="http://www.w3.org/2000/svg" xmlns:xlink="http://www.w3.org/1999/xlink">
<g id="graph0" class="graph" transform="scale(1 1) rotate(0) translate(4 1248.6)">
<title>Task1</title>
<polygon fill="#ffffff" stroke="transparent" points="-4,4 -4,-1248.6 366.1636,-1248.6 366.1636,4 -4,4"/>
<text text-anchor="middle" x="181.0818" y="-8.2" font-family="Times,serif" font-size="14.00" fill="#000000">Webot Simulation</text>
<!-- Start -->
<g id="node1" class="node">
<title>Start</title>
<ellipse fill="none" stroke="#000000" cx="181.0818" cy="-1226.6" rx="29.049" ry="18"/>
<text text-anchor="middle" x="181.0818" y="-1222.4" font-family="Times,serif" font-size="14.00" fill="#000000">Start</text>
</g>
<!-- Follow_the_line -->
<g id="node2" class="node">
<title>Follow_the_line</title>
<ellipse fill="none" stroke="#000000" cx="181.0818" cy="-1153.6" rx="74.1778" ry="18"/>
<text text-anchor="middle" x="181.0818" y="-1149.4" font-family="Times,serif" font-size="14.00" fill="#000000">Follow_the_line</text>
</g>
<!-- Start&#45;&gt;Follow_the_line -->
<g id="edge1" class="edge">
<title>Start&#45;&gt;Follow_the_line</title>
<path fill="none" stroke="#000000" d="M181.0818,-1208.5551C181.0818,-1200.4828 181.0818,-1190.7764 181.0818,-1181.7817"/>
<polygon fill="#000000" stroke="#000000" points="184.5819,-1181.6903 181.0818,-1171.6904 177.5819,-1181.6904 184.5819,-1181.6903"/>
</g>
<!-- Find_the_orangebox_position -->
<g id="node3" class="node">
<title>Find_the_orangebox_position</title>
<ellipse fill="none" stroke="#000000" cx="181.0818" cy="-1080.6" rx="126.8185" ry="18"/>
<text text-anchor="middle" x="181.0818" y="-1076.4" font-family="Times,serif" font-size="14.00" fill="#000000">Find_the_orangebox_position</text>
</g>
<!-- Follow_the_line&#45;&gt;Find_the_orangebox_position -->
<g id="edge2" class="edge">
<title>Follow_the_line&#45;&gt;Find_the_orangebox_position</title>
<path fill="none" stroke="#000000" d="M181.0818,-1135.5551C181.0818,-1127.4828 181.0818,-1117.7764 181.0818,-1108.7817"/>
<polygon fill="#000000" stroke="#000000" points="184.5819,-1108.6903 181.0818,-1098.6904 177.5819,-1108.6904 184.5819,-1108.6903"/>
</g>
<!-- Drive_to_the_position -->
<g id="node4" class="node">
<title>Drive_to_the_position</title>
<ellipse fill="none" stroke="#000000" cx="181.0818" cy="-1007.6" rx="97.8768" ry="18"/>
<text text-anchor="middle" x="181.0818" y="-1003.4" font-family="Times,serif" font-size="14.00" fill="#000000">Drive_to_the_position</text>
</g>
<!-- Find_the_orangebox_position&#45;&gt;Drive_to_the_position -->
<g id="edge3" class="edge">
<title>Find_the_orangebox_position&#45;&gt;Drive_to_the_position</title>
<path fill="none" stroke="#000000" d="M181.0818,-1062.5551C181.0818,-1054.4828 181.0818,-1044.7764 181.0818,-1035.7817"/>
<polygon fill="#000000" stroke="#000000" points="184.5819,-1035.6903 181.0818,-1025.6904 177.5819,-1035.6904 184.5819,-1035.6903"/>
</g>
<!-- Release_food -->
<g id="node5" class="node">
<title>Release_food</title>
<ellipse fill="none" stroke="#000000" cx="181.0818" cy="-934.6" rx="63.6832" ry="18"/>
<text text-anchor="middle" x="181.0818" y="-930.4" font-family="Times,serif" font-size="14.00" fill="#000000">Release_food</text>
</g>
<!-- Drive_to_the_position&#45;&gt;Release_food -->
<g id="edge4" class="edge">
<title>Drive_to_the_position&#45;&gt;Release_food</title>
<path fill="none" stroke="#000000" d="M181.0818,-989.5551C181.0818,-981.4828 181.0818,-971.7764 181.0818,-962.7817"/>
<polygon fill="#000000" stroke="#000000" points="184.5819,-962.6903 181.0818,-952.6904 177.5819,-962.6904 184.5819,-962.6903"/>
</g>
<!-- Follow_the_line_to_beacon1 -->
<g id="node6" class="node">
<title>Follow_the_line_to_beacon1</title>
<ellipse fill="none" stroke="#000000" cx="181.0818" cy="-861.6" rx="123.864" ry="18"/>
<text text-anchor="middle" x="181.0818" y="-857.4" font-family="Times,serif" font-size="14.00" fill="#000000">Follow_the_line_to_beacon1</text>
</g>
<!-- Release_food&#45;&gt;Follow_the_line_to_beacon1 -->
<g id="edge5" class="edge">
<title>Release_food&#45;&gt;Follow_the_line_to_beacon1</title>
<path fill="none" stroke="#000000" d="M181.0818,-916.5551C181.0818,-908.4828 181.0818,-898.7764 181.0818,-889.7817"/>
<polygon fill="#000000" stroke="#000000" points="184.5819,-889.6903 181.0818,-879.6904 177.5819,-889.6904 184.5819,-889.6903"/>
</g>
<!-- Turn_left_90degrees_aim_to_bridge -->
<g id="node7" class="node">
<title>Turn_left_90degrees_aim_to_bridge</title>
<ellipse fill="none" stroke="#000000" cx="181.0818" cy="-788.6" rx="152.7572" ry="18"/>
<text text-anchor="middle" x="181.0818" y="-784.4" font-family="Times,serif" font-size="14.00" fill="#000000">Turn_left_90degrees_aim_to_bridge</text>
</g>
<!-- Follow_the_line_to_beacon1&#45;&gt;Turn_left_90degrees_aim_to_bridge -->
<g id="edge6" class="edge">
<title>Follow_the_line_to_beacon1&#45;&gt;Turn_left_90degrees_aim_to_bridge</title>
<path fill="none" stroke="#000000" d="M181.0818,-843.5551C181.0818,-835.4828 181.0818,-825.7764 181.0818,-816.7817"/>
<polygon fill="#000000" stroke="#000000" points="184.5819,-816.6903 181.0818,-806.6904 177.5819,-816.6904 184.5819,-816.6903"/>
</g>
<!-- Go_straight_across_bridge -->
<g id="node8" class="node">
<title>Go_straight_across_bridge</title>
<ellipse fill="none" stroke="#000000" cx="181.0818" cy="-715.6" rx="115.1706" ry="18"/>
<text text-anchor="middle" x="181.0818" y="-711.4" font-family="Times,serif" font-size="14.00" fill="#000000">Go_straight_across_bridge</text>
</g>
<!-- Turn_left_90degrees_aim_to_bridge&#45;&gt;Go_straight_across_bridge -->
<g id="edge7" class="edge">
<title>Turn_left_90degrees_aim_to_bridge&#45;&gt;Go_straight_across_bridge</title>
<path fill="none" stroke="#000000" d="M181.0818,-770.5551C181.0818,-762.4828 181.0818,-752.7764 181.0818,-743.7817"/>
<polygon fill="#000000" stroke="#000000" points="184.5819,-743.6903 181.0818,-733.6904 177.5819,-743.6904 184.5819,-743.6903"/>
</g>
<!-- Test_the_distance_with_trees -->
<g id="node9" class="node">
<title>Test_the_distance_with_trees</title>
<ellipse fill="none" stroke="#000000" cx="181.0818" cy="-642.6" rx="125.6189" ry="18"/>
<text text-anchor="middle" x="181.0818" y="-638.4" font-family="Times,serif" font-size="14.00" fill="#000000">Test_the_distance_with_trees</text>
</g>
<!-- Go_straight_across_bridge&#45;&gt;Test_the_distance_with_trees -->
<g id="edge8" class="edge">
<title>Go_straight_across_bridge&#45;&gt;Test_the_distance_with_trees</title>
<path fill="none" stroke="#000000" d="M181.0818,-697.5551C181.0818,-689.4828 181.0818,-679.7764 181.0818,-670.7817"/>
<polygon fill="#000000" stroke="#000000" points="184.5819,-670.6903 181.0818,-660.6904 177.5819,-670.6904 184.5819,-670.6903"/>
</g>
<!-- Turn_right_90degrees -->
<g id="node10" class="node">
<title>Turn_right_90degrees</title>
<ellipse fill="none" stroke="#000000" cx="181.0818" cy="-569.6" rx="96.6965" ry="18"/>
<text text-anchor="middle" x="181.0818" y="-565.4" font-family="Times,serif" font-size="14.00" fill="#000000">Turn_right_90degrees</text>
</g>
<!-- Test_the_distance_with_trees&#45;&gt;Turn_right_90degrees -->
<g id="edge9" class="edge">
<title>Test_the_distance_with_trees&#45;&gt;Turn_right_90degrees</title>
<path fill="none" stroke="#000000" d="M181.0818,-624.5551C181.0818,-616.4828 181.0818,-606.7764 181.0818,-597.7817"/>
<polygon fill="#000000" stroke="#000000" points="184.5819,-597.6903 181.0818,-587.6904 177.5819,-597.6904 184.5819,-597.6903"/>
</g>
<!-- Follow_the_line_to_beacon2 -->
<g id="node11" class="node">
<title>Follow_the_line_to_beacon2</title>
<ellipse fill="none" stroke="#000000" cx="181.0818" cy="-496.6" rx="123.864" ry="18"/>
<text text-anchor="middle" x="181.0818" y="-492.4" font-family="Times,serif" font-size="14.00" fill="#000000">Follow_the_line_to_beacon2</text>
</g>
<!-- Turn_right_90degrees&#45;&gt;Follow_the_line_to_beacon2 -->
<g id="edge10" class="edge">
<title>Turn_right_90degrees&#45;&gt;Follow_the_line_to_beacon2</title>
<path fill="none" stroke="#000000" d="M181.0818,-551.5551C181.0818,-543.4828 181.0818,-533.7764 181.0818,-524.7817"/>
<polygon fill="#000000" stroke="#000000" points="184.5819,-524.6903 181.0818,-514.6904 177.5819,-524.6904 184.5819,-524.6903"/>
</g>
<!-- Turn_left_90degrees_aim_to_arch -->
<g id="node12" class="node">
<title>Turn_left_90degrees_aim_to_arch</title>
<ellipse fill="none" stroke="#000000" cx="181.0818" cy="-423.6" rx="144.6494" ry="18"/>
<text text-anchor="middle" x="181.0818" y="-419.4" font-family="Times,serif" font-size="14.00" fill="#000000">Turn_left_90degrees_aim_to_arch</text>
</g>
<!-- Follow_the_line_to_beacon2&#45;&gt;Turn_left_90degrees_aim_to_arch -->
<g id="edge11" class="edge">
<title>Follow_the_line_to_beacon2&#45;&gt;Turn_left_90degrees_aim_to_arch</title>
<path fill="none" stroke="#000000" d="M181.0818,-478.5551C181.0818,-470.4828 181.0818,-460.7764 181.0818,-451.7817"/>
<polygon fill="#000000" stroke="#000000" points="184.5819,-451.6903 181.0818,-441.6904 177.5819,-451.6904 184.5819,-451.6903"/>
</g>
<!-- Straight_through_the_arch -->
<g id="node13" class="node">
<title>Straight_through_the_arch</title>
<ellipse fill="none" stroke="#000000" cx="181.0818" cy="-350.6" rx="114.6121" ry="18"/>
<text text-anchor="middle" x="181.0818" y="-346.4" font-family="Times,serif" font-size="14.00" fill="#000000">Straight_through_the_arch</text>
</g>
<!-- Turn_left_90degrees_aim_to_arch&#45;&gt;Straight_through_the_arch -->
<g id="edge12" class="edge">
<title>Turn_left_90degrees_aim_to_arch&#45;&gt;Straight_through_the_arch</title>
<path fill="none" stroke="#000000" d="M181.0818,-405.5551C181.0818,-397.4828 181.0818,-387.7764 181.0818,-378.7817"/>
<polygon fill="#000000" stroke="#000000" points="184.5819,-378.6903 181.0818,-368.6904 177.5819,-378.6904 184.5819,-378.6903"/>
</g>
<!-- Find_the_line_and_follow -->
<g id="node14" class="node">
<title>Find_the_line_and_follow</title>
<ellipse fill="none" stroke="#000000" cx="181.0818" cy="-277.6" rx="113.4895" ry="18"/>
<text text-anchor="middle" x="181.0818" y="-273.4" font-family="Times,serif" font-size="14.00" fill="#000000">Find_the_line_and_follow</text>
</g>
<!-- Straight_through_the_arch&#45;&gt;Find_the_line_and_follow -->
<g id="edge13" class="edge">
<title>Straight_through_the_arch&#45;&gt;Find_the_line_and_follow</title>
<path fill="none" stroke="#000000" d="M181.0818,-332.5551C181.0818,-324.4828 181.0818,-314.7764 181.0818,-305.7817"/>
<polygon fill="#000000" stroke="#000000" points="184.5819,-305.6903 181.0818,-295.6904 177.5819,-305.6904 184.5819,-305.6903"/>
</g>
<!-- To_colorbox_position -->
<g id="node15" class="node">
<title>To_colorbox_position</title>
<ellipse fill="none" stroke="#000000" cx="181.0818" cy="-204.6" rx="96.7389" ry="18"/>
<text text-anchor="middle" x="181.0818" y="-200.4" font-family="Times,serif" font-size="14.00" fill="#000000">To_colorbox_position</text>
</g>
<!-- Find_the_line_and_follow&#45;&gt;To_colorbox_position -->
<g id="edge14" class="edge">
<title>Find_the_line_and_follow&#45;&gt;To_colorbox_position</title>
<path fill="none" stroke="#000000" d="M181.0818,-259.5551C181.0818,-251.4828 181.0818,-241.7764 181.0818,-232.7817"/>
<polygon fill="#000000" stroke="#000000" points="184.5819,-232.6903 181.0818,-222.6904 177.5819,-232.6904 184.5819,-232.6903"/>
</g>
<!-- Read_and_test_the_color_of_box -->
<g id="node16" class="node">
<title>Read_and_test_the_color_of_box</title>
<ellipse fill="none" stroke="#000000" cx="181.0818" cy="-131.6" rx="141.245" ry="18"/>
<text text-anchor="middle" x="181.0818" y="-127.4" font-family="Times,serif" font-size="14.00" fill="#000000">Read_and_test_the_color_of_box</text>
</g>
<!-- To_colorbox_position&#45;&gt;Read_and_test_the_color_of_box -->
<g id="edge15" class="edge">
<title>To_colorbox_position&#45;&gt;Read_and_test_the_color_of_box</title>
<path fill="none" stroke="#000000" d="M181.0818,-186.5551C181.0818,-178.4828 181.0818,-168.7764 181.0818,-159.7817"/>
<polygon fill="#000000" stroke="#000000" points="184.5819,-159.6903 181.0818,-149.6904 177.5819,-159.6904 184.5819,-159.6903"/>
</g>
<!-- Follow_the_correct_line_to_finish_position -->
<g id="node17" class="node">
<title>Follow_the_correct_line_to_finish_position</title>
<ellipse fill="none" stroke="#000000" cx="181.0818" cy="-42.8" rx="181.1636" ry="18"/>
<text text-anchor="middle" x="181.0818" y="-38.6" font-family="Times,serif" font-size="14.00" fill="#000000">Follow_the_correct_line_to_finish_position</text>
</g>
<!-- Read_and_test_the_color_of_box&#45;&gt;Follow_the_correct_line_to_finish_position -->
<g id="edge16" class="edge">
<title>Read_and_test_the_color_of_box&#45;&gt;Follow_the_correct_line_to_finish_position</title>
<path fill="none" stroke="#000000" d="M181.0818,-113.2006C181.0818,-101.0949 181.0818,-85.0076 181.0818,-71.2674"/>
<polygon fill="#000000" stroke="#000000" points="184.5819,-70.872 181.0818,-60.872 177.5819,-70.8721 184.5819,-70.872"/>
<text text-anchor="middle" x="253.5787" y="-83" font-family="Times,serif" font-size="14.00" fill="#000000">A random color generator</text>
</g>
</g>
</svg>
